<svg width="21" height="21" viewBox="0 0 21 21" fill="none" xmlns="http://www.w3.org/2000/svg">
<path d="M3.86749 18.0066C3.74609 18.0064 3.62607 17.9809 3.51505 17.9318C3.40403 17.8827 3.30444 17.811 3.22262 17.7213C3.13931 17.6324 3.07575 17.5269 3.03609 17.4117C2.99643 17.2965 2.98157 17.1742 2.99249 17.0528L3.20687 14.6956L13.1101 4.79582L16.205 7.88982L6.30437 17.7887L3.94712 18.0031C3.92065 18.0055 3.89407 18.0067 3.86749 18.0066V18.0066ZM16.8227 7.2712L13.7287 4.1772L15.5846 2.32132C15.6659 2.23997 15.7624 2.17543 15.8686 2.1314C15.9748 2.08736 16.0887 2.0647 16.2037 2.0647C16.3187 2.0647 16.4325 2.08736 16.5388 2.1314C16.645 2.17543 16.7415 2.23997 16.8227 2.32132L18.6786 4.1772C18.76 4.25846 18.8245 4.35496 18.8685 4.46119C18.9126 4.56741 18.9352 4.68127 18.9352 4.79626C18.9352 4.91125 18.9126 5.02511 18.8685 5.13133C18.8245 5.23756 18.76 5.33406 18.6786 5.41532L16.8236 7.27032L16.8227 7.2712V7.2712Z" fill="url(#paint0_linear_57_19)"/>
<defs>
<linearGradient id="paint0_linear_57_19" x1="10.9621" y1="2.0647" x2="10.9621" y2="18.0066" gradientUnits="userSpaceOnUse">
<stop stop-color="#001AFF"/>
<stop offset="1" stop-color="#FF3000"/>
</linearGradient>
</defs>
</svg>
